<?xml version="1.0" encoding="utf-8"?>
<!-- Generator: Adobe Illustrator 16.2.1, SVG Export Plug-In . SVG Version: 6.00 Build 0)  -->
<!DOCTYPE svg PUBLIC "-//W3C//DTD SVG 1.1//EN" "http://www.w3.org/Graphics/SVG/1.1/DTD/svg11.dtd">
<svg version="1.1" id="Laag_1" xmlns="http://www.w3.org/2000/svg" xmlns:xlink="http://www.w3.org/1999/xlink" x="0px" y="0px"
	 width="1600px" height="744.955px" viewBox="0 0 1600 744.955" enable-background="new 0 0 1600 744.955" xml:space="preserve">
<g opacity="0.2">
	<path fill="#FFFFFF" d="M363.514,92.722l134.705-60.405v28.391l-107.22,45.908l107.22,45.304v28.392l-134.705-60.105V92.722z"/>
	<path fill="#FFFFFF" d="M578.55,0h27.786l-71.58,213.535h-27.788L578.55,0z"/>
	<path fill="#FFFFFF" d="M615.087,151.92l107.22-45.304l-107.22-45.908V32.317l134.705,60.405v27.484l-134.705,60.105V151.92z"/>
	<path fill="#FFFFFF" d="M0,93.175L134.705,32.77v28.39l-107.22,45.91l107.22,45.303v28.391L0,120.659V93.175z"/>
	<path fill="#FFFFFF" d="M179.394,152.373l107.22-45.303l-107.22-45.91V32.77l134.705,60.405v27.484l-134.705,60.105V152.373z"/>
	<path fill="#FFFFFF" d="M1162.723,92.722l134.705-60.405v28.391l-107.219,45.908l107.219,45.304v28.392l-134.705-60.105V92.722z"/>
	<path fill="#FFFFFF" d="M1377.76,0h27.785l-71.58,213.535h-27.789L1377.76,0z"/>
	<path fill="#FFFFFF" d="M1414.297,151.92l107.219-45.304l-107.219-45.908V32.317L1549,92.722v27.484l-134.703,60.105V151.92z"/>
	<path fill="#FFFFFF" d="M799.208,93.175L933.914,32.77v28.39l-107.221,45.91l107.221,45.303v28.391l-134.707-60.105V93.175z"/>
	<path fill="#FFFFFF" d="M978.604,152.373l107.219-45.303L978.604,61.16V32.77l134.703,60.405v27.484l-134.703,60.105V152.373z"/>
	<g>
		<path fill="#FFFFFF" d="M950.496,279.188l134.705-60.405v28.391l-107.22,45.908l107.22,45.304v28.392l-134.705-60.105V279.188z"/>
		<path fill="#FFFFFF" d="M1165.532,186.465h27.786L1121.738,400h-27.788L1165.532,186.465z"/>
		<path fill="#FFFFFF" d="M1202.069,338.385l107.221-45.304l-107.221-45.908v-28.391l134.705,60.405v27.484l-134.705,60.105V338.385
			z"/>
	</g>
	<g>
		<path fill="#FFFFFF" d="M150.705,279.188l134.705-60.405v28.391l-107.22,45.908l107.22,45.304v28.392l-134.705-60.105V279.188z"/>
		<path fill="#FFFFFF" d="M365.74,186.465h27.786L321.946,400h-27.788L365.74,186.465z"/>
		<path fill="#FFFFFF" d="M402.277,338.385l107.22-45.304l-107.22-45.908v-28.391l134.705,60.405v27.484l-134.705,60.105V338.385z"
			/>
	</g>
	<g>
		<path fill="#FFFFFF" d="M586.982,279.641l134.705-60.405v28.39l-107.22,45.91l107.22,45.303v28.391l-134.705-60.105V279.641z"/>
		<path fill="#FFFFFF" d="M766.376,338.838l107.22-45.303l-107.22-45.91v-28.39l134.705,60.405v27.484l-134.705,60.105V338.838z"/>
	</g>
	<g>
		<path fill="#FFFFFF" d="M1386.19,279.641l134.705-60.405v28.39l-107.219,45.91l107.219,45.303v28.391l-134.705-60.105V279.641z"/>
		<path fill="#FFFFFF" d="M1565.585,338.838l107.221-45.303l-107.221-45.91v-28.39l134.705,60.405v27.484l-134.705,60.105V338.838z"
			/>
	</g>
	<g>
		<path fill="#FFFFFF" d="M-34,338.838L73.22,293.535L-34,247.625v-28.39l134.705,60.405v27.484L-34,367.229V338.838z"/>
	</g>
	<path fill="#FFFFFF" d="M363.514,464.746l134.705-60.405v28.391l-107.22,45.908l107.22,45.304v28.392L363.514,492.23V464.746z"/>
	<path fill="#FFFFFF" d="M578.55,372.024h27.786l-71.58,213.534h-27.788L578.55,372.024z"/>
	<path fill="#FFFFFF" d="M615.087,523.944l107.22-45.304l-107.22-45.908v-28.391l134.705,60.405v27.484l-134.705,60.105V523.944z"/>
	<path fill="#FFFFFF" d="M0,465.199l134.705-60.405v28.39l-107.22,45.909l107.22,45.304v28.392L0,492.684V465.199z"/>
	<path fill="#FFFFFF" d="M179.394,524.397l107.22-45.304l-107.22-45.909v-28.39l134.705,60.405v27.484l-134.705,60.105V524.397z"/>
	<path fill="#FFFFFF" d="M1162.723,464.746l134.705-60.405v28.391l-107.219,45.908l107.219,45.304v28.392l-134.705-60.105V464.746z"
		/>
	<path fill="#FFFFFF" d="M1377.76,372.024h27.785l-71.58,213.534h-27.789L1377.76,372.024z"/>
	<path fill="#FFFFFF" d="M1414.297,523.944l107.219-45.304l-107.219-45.908v-28.391L1549,464.746v27.484l-134.703,60.105V523.944z"
		/>
	<path fill="#FFFFFF" d="M799.208,465.199l134.707-60.405v28.39l-107.221,45.909l107.221,45.304v28.392l-134.707-60.105V465.199z"/>
	<path fill="#FFFFFF" d="M978.604,524.397l107.219-45.304l-107.219-45.909v-28.39l134.703,60.405v27.484l-134.703,60.105V524.397z"
		/>
	<g>
		<path fill="#FFFFFF" d="M950.496,651.212l134.705-60.405v28.391l-107.22,45.908l107.22,45.305v28.391l-134.705-60.104V651.212z"/>
		<path fill="#FFFFFF" d="M1165.532,558.49h27.786l-71.58,213.534h-27.788L1165.532,558.49z"/>
		<path fill="#FFFFFF" d="M1202.069,710.41l107.221-45.305l-107.221-45.908v-28.391l134.705,60.405v27.484l-134.705,60.104V710.41z"
			/>
	</g>
	<g>
		<path fill="#FFFFFF" d="M150.705,651.212l134.705-60.405v28.391l-107.22,45.908l107.22,45.305v28.391l-134.705-60.104V651.212z"/>
		<path fill="#FFFFFF" d="M365.74,558.49h27.786l-71.58,213.534h-27.788L365.74,558.49z"/>
		<path fill="#FFFFFF" d="M402.277,710.41l107.22-45.305l-107.22-45.908v-28.391l134.705,60.405v27.484l-134.705,60.104V710.41z"/>
	</g>
	<g>
		<path fill="#FFFFFF" d="M586.982,651.665l134.705-60.405v28.391l-107.22,45.909l107.22,45.304v28.391l-134.705-60.105V651.665z"/>
		<path fill="#FFFFFF" d="M766.376,710.863l107.22-45.304l-107.22-45.909V591.26l134.705,60.405v27.483l-134.705,60.105V710.863z"/>
	</g>
	<g>
		<path fill="#FFFFFF" d="M1386.19,651.665l134.705-60.405v28.391l-107.219,45.909l107.219,45.304v28.391l-134.705-60.105V651.665z"
			/>
		<path fill="#FFFFFF" d="M1565.585,710.863l107.221-45.304l-107.221-45.909V591.26l134.705,60.405v27.483l-134.705,60.105V710.863z
			"/>
	</g>
	<g>
		<path fill="#FFFFFF" d="M-34,710.863L73.22,665.56L-34,619.65V591.26l134.705,60.405v27.483L-34,739.254V710.863z"/>
	</g>
	<g>
		<path fill="#FFFFFF" d="M1165.532-186.465h27.786l-71.58,213.534h-27.788L1165.532-186.465z"/>
	</g>
	<g>
		<path fill="#FFFFFF" d="M365.74-186.465h27.786l-71.58,213.534h-27.788L365.74-186.465z"/>
	</g>
</g>
</svg>
