<?xml version="1.0" encoding="utf-8"?>
<!-- Generator: Adobe Illustrator 16.0.0, SVG Export Plug-In . SVG Version: 6.00 Build 0)  -->
<!DOCTYPE svg PUBLIC "-//W3C//DTD SVG 1.1//EN" "http://www.w3.org/Graphics/SVG/1.1/DTD/svg11.dtd">
<svg version="1.1" id="Layer_1" xmlns="http://www.w3.org/2000/svg" xmlns:xlink="http://www.w3.org/1999/xlink" x="0px" y="0px"
	 width="270.762px" height="168.65px" viewBox="0 0 270.762 168.65" enable-background="new 0 0 270.762 168.65"
	 xml:space="preserve">
<path fill="#0093AC" d="M226.294,165.34c-1.492,0-52.851,0.855-54.558,0.855c-1.709,0-2.562-1.066-2.562-2.986v-15.222h-0.642
	c-6.19,12.169-14.305,20.771-35.653,20.771c-27.114,0-46.114-22.203-46.114-58.92c0-37.789,22.143-59.138,47.333-59.138
	c19.214,0,29.558,5.888,34.896,19.764h0.76V33.133c0-2.774-0.213-5.762-0.639-7.257c-0.855-3.629-2.777-3.843-6.193-4.057
	c-2.135,0-10.461-0.214-12.381-0.214c-1.496,0-2.35-0.426-2.35-2.348V3.948c0-1.92,0.641-2.988,2.137-2.988
	c1.491,0,52.482-0.642,54.189-0.642c1.708,0,2.562,0.854,2.562,2.777v127.57c0,2.775,0,5.551,0.428,7.047
	c0.854,3.629,2.775,3.84,6.191,4.054c2.135,0,10.461,0.429,12.381,0.429c1.494,0,2.35,0.426,2.35,2.346v18.025
	C228.431,164.488,227.791,165.34,226.294,165.34 M148.236,71.715c-12.502,0-21,9.84-21,38.123c0,26.644,6.939,38.762,21,38.762
	c15.728,0,20.084-16.667,20.084-38.762C168.32,89.483,166.99,71.715,148.236,71.715"/>
<path d="M95.268,52.375c-9.474,0-17.561-6.325-17.561-16.78c0-10.144,9.516-14.628,12.078-15.697v-0.427
	c-1.858-1.439-4.058-3.202-10.248-3.202c-12.168,0-21.137,5.279-21.137,23.873v13.976h21.776c1.496,0,2.136,1.068,2.136,2.988
	v14.882c0,1.922-0.64,2.776-2.136,2.776H58.401v55.476c0,2.774,0.213,5.55,0.642,7.045c0.854,3.63,2.774,4.058,6.191,4.269
	c2.136,0,10.033,0.214,11.955,0.214c1.495,0,2.349,0.429,2.349,2.35v18.023c0,1.92-0.641,2.774-2.136,2.774H2.349
	c-1.495,0-2.136-0.854-2.136-2.774v-18.023c0-1.921,0.854-2.35,2.349-2.35c1.921,0,8.539-0.214,10.674-0.214
	c3.416-0.211,5.339-0.639,6.192-4.269c0.427-1.495,0.64-4.271,0.64-7.045V74.765H2.135C0.64,74.765,0,73.909,0,71.988V57.106
	c0-1.92,0.64-2.988,2.135-2.988h17.933v-8.538c0-23.271,19.3-45.474,52.762-45.474c29.32,0,41.508,18.594,41.508,30.335
	C114.337,45.089,105.639,52.375,95.268,52.375"/>
<path d="M270.762,151.686c0-10.21-7.545-16.854-16.853-16.854c-9.309,0-16.854,6.644-16.854,16.854s7.546,16.853,16.854,16.853
	C263.217,168.538,270.762,161.896,270.762,151.686"/>
</svg>
