<?xml version="1.0" encoding="utf-8"?>
<!-- Generator: Adobe Illustrator 16.2.1, SVG Export Plug-In . SVG Version: 6.00 Build 0)  -->
<!DOCTYPE svg PUBLIC "-//W3C//DTD SVG 1.1//EN" "http://www.w3.org/Graphics/SVG/1.1/DTD/svg11.dtd">
<svg version="1.1" id="Laag_1" xmlns="http://www.w3.org/2000/svg" xmlns:xlink="http://www.w3.org/1999/xlink" x="0px" y="0px"
	 width="21.559px" height="17.543px" viewBox="0 0 21.559 17.543" enable-background="new 0 0 21.559 17.543" xml:space="preserve">
<path fill="#E6D3C6" d="M21.539,2.084c-0.52,0.762-1.146,1.461-1.896,2.062c-0.109,0.088-0.276,0.167-0.304,0.252
	c-0.054,0.188,0,0.579,0,0.8c0,1.82-0.417,3.238-0.965,4.577c-0.618,1.517-1.418,2.748-2.462,3.867
	c-2.002,2.133-4.748,3.722-8.661,3.9H6.27C3.727,17.411,1.593,16.634,0,15.555c2.487,0.293,4.839-0.541,6.363-1.748
	c0.021-0.011,0.129-0.021,0.088-0.084c-2.19-0.168-3.468-1.354-4.05-3.074c0.618,0.106,1.395,0.106,1.936-0.092
	C2.263,10.014,0.931,8.63,0.83,6.177c0.54,0.274,1.197,0.525,1.934,0.531C2.026,6.157,1.331,5.324,1.02,4.226
	C0.698,3.069,0.904,1.71,1.455,0.814c2.113,2.469,4.921,4.332,9.132,4.627C10.032,2.432,11.973,0.284,14.546,0h0.662
	c0.943,0.094,1.781,0.423,2.407,0.91c0.16,0.125,0.401,0.468,0.569,0.479c0.21,0.011,0.575-0.13,0.777-0.19
	c0.731-0.22,1.394-0.552,1.987-0.851c-0.333,1.008-0.969,1.755-1.775,2.323c-0.033,0.022-0.119,0.039-0.096,0.095
	C19.997,2.641,20.793,2.394,21.539,2.084"/>
</svg>
