<?xml version="1.0" encoding="utf-8"?>
<!-- Generator: Adobe Illustrator 16.2.1, SVG Export Plug-In . SVG Version: 6.00 Build 0)  -->
<!DOCTYPE svg PUBLIC "-//W3C//DTD SVG 1.1//EN" "http://www.w3.org/Graphics/SVG/1.1/DTD/svg11.dtd">
<svg version="1.1" id="Laag_1" xmlns="http://www.w3.org/2000/svg" xmlns:xlink="http://www.w3.org/1999/xlink" x="0px" y="0px"
	 width="21.559px" height="21.564px" viewBox="0 0 21.559 21.564" enable-background="new 0 0 21.559 21.564" xml:space="preserve">
<g>
	<path fill="#E6D3C6" d="M0.355,7.188h4.471v14.377H0.355V7.188z M2.597,0.043c1.424,0,2.584,1.161,2.584,2.592
		s-1.16,2.59-2.584,2.59C1.157,5.226,0,4.067,0,2.635S1.157,0.043,2.597,0.043"/>
	<path fill="#E6D3C6" d="M7.63,7.188h4.285v1.966h0.059c0.596-1.13,2.054-2.32,4.227-2.32c4.523,0,5.359,2.978,5.359,6.848v7.884
		h-4.468v-6.99c0-1.668-0.029-3.813-2.321-3.813c-2.324,0-2.681,1.819-2.681,3.694v7.109H7.63V7.188z"/>
</g>
</svg>
