<?xml version="1.0" encoding="utf-8"?>
<!-- Generator: Adobe Illustrator 16.2.1, SVG Export Plug-In . SVG Version: 6.00 Build 0)  -->
<!DOCTYPE svg PUBLIC "-//W3C//DTD SVG 1.1//EN" "http://www.w3.org/Graphics/SVG/1.1/DTD/svg11.dtd">
<svg version="1.1" id="Laag_1" xmlns="http://www.w3.org/2000/svg" xmlns:xlink="http://www.w3.org/1999/xlink" x="0px" y="0px"
	 width="21.559px" height="21.564px" viewBox="0 0 21.559 21.564" enable-background="new 0 0 21.559 21.564" xml:space="preserve">
<path fill="#E6D3C6" d="M20.368,0H1.187C0.528,0,0,0.533,0,1.193v19.183c0,0.656,0.528,1.19,1.188,1.19h10.489v-8.393H8.683v-2.992
	h2.997V7.419c0-2.785,1.644-4.428,4.128-4.428c1.191,0,2.162,0.127,2.459,0.168v3.127h-2c-1.352,0-1.602,0.67-1.602,1.612v2.281
	h3.459l-0.485,2.992h-2.974v8.393h5.702c0.658,0,1.189-0.535,1.189-1.19V1.193C21.558,0.533,21.026,0,20.368,0z"/>
</svg>
